<?xml version="1.0" encoding="utf-8" ?>
<svg xmlns="http://www.w3.org/2000/svg" xmlns:xlink="http://www.w3.org/1999/xlink" width="2048" height="1024">
	<path fill="#FEFEFE" d="M0 0L2046.25 0C2048.75 3.75313 2047.99 9.76244 2047.99 14.1208L2048.02 767.612L2048.01 954.147C2048.01 967.073 2049.66 1011.74 2047.62 1020.8C2047.36 1021.98 2046.85 1022.96 2046.25 1024L0 1024L0 0Z"/>
	<path fill="#222731" d="M1579.95 84.4993C1587.2 83.6241 1594.69 83.2475 1601.95 84.1127C1618.31 86.0616 1633.31 93.8047 1643.56 106.866C1648.82 113.576 1660.97 135.405 1660 143.441C1653.31 143.815 1646.88 145.092 1640.31 146.368C1640.95 146.753 1641.19 146.861 1641.74 147.295C1655 157.801 1649.38 175.167 1650.93 189.228C1652.31 191.02 1653.41 191.073 1655.62 191.206C1673.06 192.261 1690.17 188.478 1707.77 192.095C1722.77 195.179 1732.31 209.367 1740.23 221.355C1758.46 248.968 1785.03 301.202 1788.29 333.641C1788.96 340.31 1788.18 346.147 1786.85 352.638C1789.04 354.543 1791.43 356.193 1792.39 359.019C1789.29 370.104 1782.04 383.355 1774.38 391.915C1777.5 399.317 1777.64 406.871 1780.06 414.333C1783.62 425.335 1787.9 436.036 1791.1 447.166C1800.81 480.92 1806.68 515.631 1811.65 550.352C1813.95 566.346 1812.76 584.706 1816.91 600.109C1820.44 613.227 1828.81 626.244 1834.91 638.386Q1844.21 657.209 1852.39 676.541C1866.28 708.618 1878.18 741.196 1889.33 774.302C1892.79 784.582 1897.66 795.801 1899.55 806.457C1900.1 809.561 1900.26 813.133 1898.92 816.071C1896.16 822.106 1888.84 824.429 1883.07 826.497Q1884.42 828.587 1885.16 830.96C1888.15 840.208 1894.48 864.603 1889.97 873.675C1916.42 874.001 1942.91 873.694 1969.36 873.672C1969.7 874.195 1969.92 874.691 1970.1 875.29C1971.19 878.936 1970.98 882.837 1969.26 886.229L175.5 885.981L79.6234 885.992C79.5113 882.202 79.0962 878.13 79.8439 874.405C93.3873 872.694 108.383 873.861 122.104 873.863L203.549 873.79C197.586 871.628 191.753 869.38 186.158 866.369Q185.004 865.751 183.866 865.105Q182.728 864.459 181.606 863.786Q180.483 863.112 179.378 862.411Q178.273 861.71 177.185 860.982Q176.097 860.255 175.028 859.5Q173.958 858.746 172.907 857.966Q171.857 857.186 170.825 856.38Q169.794 855.574 168.782 854.744Q167.771 853.913 166.78 853.057Q165.79 852.202 164.82 851.323Q163.851 850.444 162.903 849.541Q161.956 848.638 161.031 847.712Q160.105 846.787 159.203 845.839Q158.301 844.89 157.422 843.92Q156.544 842.951 155.689 841.959Q154.834 840.968 154.004 839.956Q153.174 838.945 152.369 837.913Q151.564 836.881 150.784 835.83Q150.005 834.778 149.251 833.708Q148.497 832.638 147.77 831.55Q147.043 830.462 146.343 829.356Q145.643 828.25 144.97 827.128Q144.297 826.005 143.651 824.867Q143.006 823.728 142.389 822.574Q141.772 821.42 141.183 820.251Q140.594 819.082 140.034 817.899Q139.475 816.716 138.944 815.52Q138.413 814.323 137.912 813.114Q137.411 811.905 136.939 810.684Q136.468 809.464 136.026 808.231Q135.585 806.999 135.174 805.757Q134.763 804.514 134.382 803.262C123.823 802.414 109.003 803.726 99.185 799.97C96.1016 798.79 93.5517 796.743 92.214 793.65C88.9446 786.093 93.077 777.035 95.7678 769.92C88.8132 738.832 73.7456 693.095 76.2777 662.243C76.8619 655.124 81.858 648.674 83.3491 641.713C85.272 632.736 84.6071 622.249 85.3769 613.011C87.0483 592.953 92.1629 575.718 108.156 562.314C146.802 529.922 241.768 498.758 290.591 484.486C309.848 478.858 331.604 475.269 349.956 467.497C364.7 461.254 382.886 443.784 396.513 434.021Q439.307 402.796 484.624 375.358C515.968 356.794 549.156 340.78 584.143 330.36C617.645 320.382 652.322 315.107 686.91 310.515Q735.789 304.018 784.981 300.616Q834.173 297.215 883.482 296.924C909.697 296.593 936.234 295.696 962.368 298.096C1050.78 306.215 1134.79 341.478 1213.33 380.997C1221.97 385.343 1247.32 396.588 1253.07 403.511C1259.21 403.038 1290.12 397.189 1294.51 394.296C1296.96 392.68 1297.47 389.438 1300.86 388.416C1307.11 386.535 1314.24 386.095 1320.68 384.91C1328.49 383.475 1336.25 381.03 1343.73 378.399C1347.75 375.897 1354.84 366.936 1356.79 362.594C1363.86 360.883 1372.02 361.271 1378.7 358.815C1410.32 347.185 1439.57 321.741 1465.79 301.172C1471.17 296.957 1477.75 293.195 1482.54 288.432C1487.56 289.3 1492.23 290.334 1497.08 291.935C1497.85 291.414 1546.59 239.383 1547.56 237.348C1545.91 235.215 1543.09 233.627 1541.06 231.794C1535.94 227.19 1530.57 219.609 1530.26 212.514C1529.85 203.117 1535.92 196.583 1541.8 190.188C1542.05 189.589 1542.14 189.486 1542.18 188.743C1542.34 185.738 1540.97 181.2 1539.21 178.762C1527.46 178.47 1516.93 176.451 1505.37 175.037Q1475.09 171.51 1444.85 167.631C1458.64 164.291 1473.32 155.652 1486.57 150.175C1497.86 145.506 1512 141.844 1522.29 135.625C1527.24 130.2 1528.2 118.577 1532.5 111.716C1543.61 93.977 1560.85 88.9345 1579.95 84.4993Z"/>
	<path fill="#FEFEFE" d="M767.096 332.574C806.904 316.122 848.096 310.03 890.882 308.629C977.567 305.793 1044.84 320.306 1125.15 353.602C1140.42 359.936 1230.39 399.218 1235.56 407.435C1229.12 409.629 1214.77 409.671 1211.53 415.51C1211.98 418.121 1213.87 422.245 1212.73 424.432C1197.33 426.748 1163.32 422.935 1145.34 423.024C1150.96 415.124 1153.84 399.668 1152.27 390.36C1150.97 382.662 1146.78 377.221 1140.4 372.92C1128.7 365.033 1112.98 359.511 1100.09 353.775C1023.36 319.648 935.777 301.91 852.353 319.339C834.565 323.056 817.002 328.584 801.03 337.378C758.62 360.727 703.95 420.526 669.478 456.452L669.269 457.873C671.977 458.63 673.519 458.626 676.059 457.236C681.305 454.365 720.428 413.14 728.696 405.136C750.852 383.686 775.167 358.69 802.044 343.382C862.314 309.055 958.304 315.055 1024.04 332.391C1045.26 337.988 1134.76 370.031 1142.9 384.424C1149.3 395.735 1139.26 416.873 1143.17 422.508C1127.52 425.764 1112.75 426.962 1097.39 432.049C1121.49 432.942 1145.47 428.437 1169.49 432.787C1149.91 435.733 1138.68 440.405 1120.56 445.124C1140.35 444.955 1161.87 443.054 1181.37 439.618C1174.51 444.745 1158.42 447.755 1149.76 451.153C1140.53 454.78 1131.61 459.144 1122.49 463.036C1137.32 461.317 1156.66 457.644 1170.43 451.856C1168.57 454.537 1130.47 479.344 1125.69 481.672C1155.66 474.592 1177.68 451.534 1205.91 442.388C1213.52 439.924 1219.77 443.8 1226.93 442.396C1254.27 437.037 1281.43 429.703 1308.55 423.317C1317.93 421.109 1327.67 420.33 1336.94 417.881C1339.45 421.217 1341.96 426.006 1346.36 426.917C1353.66 428.425 1379.86 422.863 1385.8 418.566C1388.72 416.453 1390.04 413.487 1390.52 410.019C1390.72 408.553 1391.01 406.977 1390.56 405.54C1407.24 401.871 1431.3 398.1 1446.72 391.318C1446.81 391.445 1446.91 391.568 1447 391.699C1449.26 395.178 1446.97 400.728 1450.24 403.364C1456.81 408.668 1473.09 412.415 1481.69 415.595C1498.27 421.725 1598.95 459.498 1605.6 465.479C1607.59 470.495 1605.3 483.768 1603.26 488.842C1603.07 489.317 1602.73 489.884 1602.5 490.312C1597.22 497.157 1588.1 502.935 1581.86 509.196C1570.57 520.533 1560.92 535.136 1552.21 548.596C1528.31 585.529 1509.59 626.927 1487.11 664.945C1432.85 756.685 1355.21 822.145 1246.51 836.186C1208.02 841.158 1172.69 837.587 1135 829.009C1196.69 854.387 1272.25 845.612 1332.73 820.417C1458.69 767.941 1492.1 668.825 1556.12 560.727C1562.83 549.401 1570.63 538.39 1578.89 528.146C1583.6 522.301 1596.7 510.008 1599.14 504.522C1599.19 504.397 1599.24 504.268 1599.29 504.141C1599.87 505.424 1600.21 506.724 1600.07 508.136C1599.11 517.764 1595.83 527.952 1593.91 537.486C1590.92 552.311 1588.78 567.348 1586.55 582.302C1585.19 591.4 1583.49 600.642 1582.98 609.827C1582.53 617.981 1583.02 626.2 1582.25 634.335C1579.17 666.746 1574.76 698.619 1573.09 731.238C1572.45 743.621 1571.98 822.534 1570.38 827.172C1570.3 827.384 1570.21 827.592 1570.13 827.802C1549.38 837.646 1540.02 842.754 1526.29 861.869C1523.63 865.571 1521.11 871.476 1517.7 874.196L1303.68 874.217C1273.14 874.158 1242.18 875.312 1211.7 874.041L686.312 873.821L653.379 873.742C687.108 853.707 709.808 826.512 719.62 787.94L719.77 787.33L964.962 755.038L1036.96 745.634C1050.39 743.912 1065.04 743.029 1078.11 739.613C1078.24 739.734 1078.38 739.851 1078.52 739.976C1084.25 745.392 1090.39 759.701 1095.48 767.073C1120.11 802.678 1153.95 798.336 1192.27 798.012C1219.98 797.777 1243.13 789.729 1262.76 769.721C1270.19 762.138 1289.53 737.812 1289.37 727.003C1289.36 726.289 1289.24 725.654 1289.1 724.955L1274.38 725.006C1275.16 731.984 1263.76 748.091 1259.37 753.565C1248.55 767.069 1233.49 777.432 1215.96 779.265C1201.29 780.799 1186.45 775.114 1175.2 765.85C1165.17 757.592 1158.67 747.05 1152.48 735.798C1150.73 732.633 1149.2 728.272 1146.68 725.761C1124.56 725.552 1101.55 724.541 1079.5 726.128C1062.6 727.345 1045.55 730.33 1028.76 732.581Q979.514 738.896 930.359 745.89C861.178 755.108 791.812 763.589 722.746 773.56C725.029 756.325 724.748 740.132 722.592 722.901L707.793 722.848C714.506 757.231 708.033 794.935 688.29 824.183C675.824 842.651 657.67 857.978 635.348 862.284C616.059 866.005 596.548 860.525 580.515 849.537C556.491 833.074 540.844 805.153 535.617 776.845C530.438 748.795 534.749 721.122 546.454 695.329C542.281 692.204 535.776 685.858 530.27 686.58C528.032 686.874 526.18 688.472 524.92 690.287C513.294 707.029 510.36 748.297 510.698 768.461C510.806 774.905 512.691 786.45 510.693 792.287C509.895 794.619 505.962 795.701 503.814 796.112C481.215 800.438 453.662 799.967 430.406 800.841Q375.488 802.936 320.539 801.907C247.734 799.909 174.569 793.367 101.869 788.6C103.929 782.622 106.037 776.822 108.761 771.109C103.375 740.188 87.0556 698.782 88.4243 668.504C88.9581 656.694 95.8736 646.647 96.5722 634.484C97.4903 618.499 96.47 596.042 106.078 582.248C136.897 538.002 334.985 482.015 390.384 472.704C403.227 470.545 460.728 471.524 467.212 467.121L467.022 464.742C459.707 460.824 403.878 465.709 392.838 466.141C429.955 436.577 467.71 408.768 508.325 384.122C520.076 376.99 532.579 368.722 545.423 363.809C582.838 349.498 705.148 344.803 751.351 345.326C733.334 361.441 647.848 438.427 644.276 455.955L644.94 457.806C647.215 458.406 647.518 458.337 649.755 457.571C665.038 438.172 683.376 419.172 701.031 401.874Q718.867 384.524 737.568 368.111C744.7 361.817 752.835 355.768 759.191 348.731C761.713 345.94 763.476 342.492 765.036 339.092C742.258 337.745 718.891 338.683 696.101 339.548Q663.988 340.468 631.985 343.281Q599.982 346.094 568.201 350.79C640.907 321.209 737.395 316.31 815.615 310.612C810.013 313.239 803.981 314.56 798.087 316.367C786.25 319.995 776.964 325.18 767.096 332.574Z"/>
	<path fill="#C0BA98" d="M733.394 803.343C757.698 798.932 782.672 796.471 807.16 793.146Q888.36 782.754 969.431 771.418Q993.537 768.135 1017.68 765.145C1025.79 764.116 1034.59 763.664 1042.5 761.69C1042.66 761.833 1042.82 761.972 1042.98 762.118C1047.1 765.966 1050.04 771.267 1053.47 775.737C1061.83 786.62 1071.42 796.848 1082.59 804.905C1089.28 809.736 1131.26 830.789 1133 833.535C1091.88 830.414 1055.86 815.655 1017.38 802.307C1027.14 810.369 1036.81 818.158 1047.78 824.56C1097.92 853.798 1160.15 858.175 1216.81 861.949C1217.36 866.22 1214.14 870.753 1211.7 874.041L686.312 873.821C708.026 854.159 723.769 831.152 733.394 803.343Z"/>
	<path fill="#222731" d="M896.771 324.428C897.342 324.349 897.918 324.272 898.494 324.224C965.496 318.593 1036 335.237 1096.94 362.134C1109.14 367.518 1123.9 372.965 1133.98 381.781C1139.1 386.26 1140.7 390.786 1141.14 397.518C1141.51 403.231 1141.05 413.328 1137.11 417.831C1127.47 421.044 1106.21 421.975 1095.05 423.341C1095.22 422.795 1095.41 422.169 1095.44 421.595C1095.84 412.215 1073 364.969 1065.99 357.425C1070.32 370.874 1094.62 413.095 1091.93 423.288C1091.89 423.423 1091.84 423.554 1091.8 423.687C1065.52 428.378 828.631 463.13 826.976 462.764C826.33 462.621 825.807 462.142 825.223 461.831L825.929 459.051C831.285 454.913 905.244 445.206 917.366 443.586Q915.018 426.358 912.106 409.217C906.717 382.218 898.407 354.783 882.986 331.747L882.538 331.775C830.356 335.404 800.056 356.557 762.592 390.142C752.196 399.463 740.961 408.704 731.766 419.201C728.226 423.241 726.991 427.668 725.448 432.704C728.198 431.224 730.986 429.841 734.006 429.002C753.735 423.516 784.419 425.021 802.488 435.499C807.072 438.156 813.491 441.865 814.689 447.479C815.378 450.712 814.499 453.52 812.734 456.216C811.047 458.793 808.98 460.541 805.919 461.175L804.47 459.828C804.413 456.581 807.381 453.142 809.162 450.516C805.304 446.507 800.767 442.891 795.891 440.206C780.514 431.738 753.249 429.751 736.273 434.863C724.092 438.532 720.634 448.083 715.181 458.393L682.349 458.465C718.165 421.636 776.993 357.379 822.851 338.766C846.474 329.177 871.56 326.234 896.771 324.428Z"/>
	<path fill="#FEFEFE" d="M926.438 329.703C961.6 329.371 996.912 335.632 1030.69 344.999C1038.1 347.054 1047.22 349.153 1053.77 353.09C1055.17 353.983 1056.06 354.951 1056.98 356.318C1063.14 365.441 1085.92 410.218 1084.05 419.445C1079.52 420.679 1073.93 420.944 1069.24 421.606C1058.63 424.082 1046.82 424.811 1035.93 426.315Q1003 430.735 970.192 435.966C962.399 401.668 944.314 359.996 926.438 329.703Z"/>
	<path fill="#FEFEFE" d="M897.286 330.12C899.107 330.102 900.616 330.311 902.388 330.719C914.648 342.561 926.707 377.584 931.972 394.975C934.274 402.58 943.87 434.483 940.97 439.922L935.805 440.908L924.316 442.844C920.561 411.77 915.104 379.912 902.09 351.177C899.728 345.963 895.957 341.54 893.542 336.427C892.58 334.391 892.035 333.179 892.822 331.032L897.286 330.12Z"/>
	<path fill="#FEFEFE" d="M1075.52 361.476C1077.94 361.466 1079.88 362.121 1082.1 362.991C1093.32 367.388 1127.93 381.407 1132.07 391.433C1133.82 395.697 1134.6 406.587 1132.66 410.818C1132 412.262 1130.67 412.372 1129.25 412.938Q1114.27 415.442 1099.19 417.309C1099.33 416.884 1099.57 416.257 1099.61 415.777C1100.3 407.688 1081.34 368.433 1075.52 361.476Z"/>
	<path fill="#FEFEFE" d="M906.744 329.939L919.145 329.727L919.768 330.8C928.527 345.99 966.377 423.974 962.754 437.389L945.417 439.649C939.192 401.415 926.794 363.172 906.744 329.939Z"/>
	<path fill="#222731" d="M563.024 682.093C575.551 681.184 588.419 681.75 600.984 681.757L668.002 681.765L881.025 681.788L1244.54 681.78Q1344.84 681.487 1445.14 682.242C1440.57 685.869 1432.77 687.735 1427.18 689.142Q1426.08 689.803 1424.93 690.374C1413.81 695.82 1389.91 703.316 1377.83 704.214C1358.97 705.617 1339.39 704.396 1320.46 704.382Q1270.82 704.828 1221.17 704.686L921.895 704.622L723.237 704.751L665.533 704.7C654.217 704.68 642.435 705.224 631.184 704.105C614.903 702.485 580.147 688.112 563.024 682.093Z"/>
	<path fill="#222731" d="M667.294 489.319Q668.806 489.146 670.324 489.038Q671.842 488.93 673.364 488.888Q674.885 488.845 676.407 488.868Q677.928 488.891 679.448 488.979Q680.967 489.068 682.481 489.222Q683.995 489.375 685.501 489.594Q687.008 489.813 688.503 490.096Q689.998 490.379 691.48 490.727Q692.962 491.074 694.427 491.485Q695.892 491.896 697.339 492.369Q698.785 492.843 700.21 493.378Q701.635 493.914 703.035 494.51Q704.435 495.106 705.809 495.762Q707.182 496.417 708.526 497.132Q709.87 497.846 711.182 498.617Q712.494 499.389 713.771 500.216C729.05 510.319 738.689 526.238 742.32 544.04C746.389 563.986 743.074 585.919 731.635 602.932C720.243 619.876 704.584 629.071 684.825 632.921C666.952 633.933 650.661 631.789 635.831 621.008C619.807 609.357 609.686 591.87 606.73 572.361C603.708 552.423 607.98 532.03 620.101 515.746C631.891 499.907 648.074 492.093 667.294 489.319Z"/>
	<path fill="#FEFEFE" d="M667.974 520.384C675.822 519.632 682.399 519.956 689.696 523.385C699.101 527.805 705.94 536.221 709.309 545.953Q709.679 547.019 709.997 548.102Q710.314 549.185 710.578 550.282Q710.841 551.379 711.05 552.488Q711.26 553.597 711.414 554.715Q711.568 555.833 711.667 556.957Q711.765 558.081 711.808 559.209Q711.852 560.337 711.839 561.465Q711.827 562.594 711.758 563.72Q711.69 564.847 711.567 565.968Q711.443 567.09 711.264 568.204Q711.085 569.318 710.852 570.422Q710.618 571.526 710.33 572.618Q710.042 573.709 709.701 574.784Q709.36 575.86 708.966 576.918Q708.572 577.975 708.126 579.012Q707.68 580.049 707.184 581.062C701.646 592.143 692.928 598.008 681.535 601.8C673.774 602.228 666.909 602.075 659.705 598.625C650.387 594.163 643.773 585.75 640.441 576.086C636.515 564.7 637.079 551.637 642.568 540.854C648.086 530.012 656.755 524.155 667.974 520.384Z"/>
	<path fill="#222731" d="M937.651 489.255C954.963 487.741 971.142 490.352 985.802 500.122C1001.03 510.267 1011.23 526.718 1014.77 544.562Q1015.14 546.41 1015.42 548.274Q1015.7 550.137 1015.88 552.013Q1016.07 553.888 1016.16 555.77Q1016.26 557.653 1016.26 559.537Q1016.26 561.422 1016.16 563.304Q1016.07 565.186 1015.88 567.062Q1015.7 568.937 1015.42 570.801Q1015.14 572.665 1014.77 574.512Q1014.4 576.36 1013.93 578.187Q1013.47 580.014 1012.92 581.816Q1012.37 583.618 1011.73 585.391Q1011.09 587.163 1010.36 588.902Q1009.63 590.64 1008.82 592.341Q1008.01 594.041 1007.11 595.7Q1006.22 597.358 1005.24 598.97Q1004.27 600.581 1003.21 602.143C991.971 618.718 976.66 628.173 957.166 631.885C939.884 633.722 923.216 630.479 908.759 620.551Q907.305 619.534 905.903 618.446Q904.501 617.357 903.155 616.201Q901.808 615.045 900.521 613.824Q899.233 612.603 898.008 611.319Q896.782 610.035 895.622 608.693Q894.462 607.35 893.369 605.952Q892.276 604.553 891.255 603.102Q890.233 601.651 889.284 600.152Q888.335 598.652 887.461 597.108Q886.588 595.563 885.792 593.977Q884.995 592.391 884.279 590.767Q883.562 589.143 882.927 587.486Q882.292 585.829 881.739 584.143Q881.187 582.457 880.718 580.745Q880.25 579.033 879.867 577.3Q879.484 575.568 879.187 573.818Q878.855 571.993 878.612 570.153Q878.37 568.313 878.217 566.464Q878.065 564.615 878.003 562.761Q877.941 560.906 877.969 559.051Q877.998 557.196 878.117 555.344Q878.236 553.493 878.445 551.649Q878.655 549.806 878.954 547.975Q879.253 546.143 879.641 544.329Q880.029 542.515 880.506 540.721Q880.982 538.928 881.545 537.16Q882.109 535.393 882.758 533.654Q883.406 531.916 884.14 530.212Q884.873 528.507 885.688 526.84Q886.503 525.174 887.399 523.549Q888.295 521.924 889.269 520.345Q890.243 518.766 891.293 517.236C902.68 500.962 918.394 492.597 937.651 489.255Z"/>
	<path fill="#FEFEFE" d="M938.312 520.247C946.21 519.532 952.868 519.347 960.438 522.362Q961.315 522.721 962.173 523.123Q963.032 523.526 963.868 523.971Q964.705 524.417 965.518 524.904Q966.332 525.391 967.119 525.918Q967.907 526.446 968.667 527.012Q969.427 527.578 970.158 528.183Q970.888 528.787 971.587 529.427Q972.286 530.067 972.952 530.742Q973.618 531.416 974.249 532.123Q974.88 532.831 975.475 533.569Q976.069 534.307 976.626 535.074Q977.182 535.842 977.7 536.636Q978.217 537.431 978.693 538.25Q979.17 539.069 979.604 539.912Q980.039 540.754 980.43 541.618Q980.822 542.481 981.169 543.363C985.656 554.473 985.212 567.755 980.483 578.711C975.605 590.016 967.361 596.889 956.147 601.282C948.341 602.566 940.812 602.364 933.455 599.225C923.796 595.104 916.678 586.891 912.925 577.187C908.537 565.841 908.745 552.54 913.786 541.436C918.933 530.101 927.085 524.475 938.312 520.247Z"/>
	<path fill="#222731" d="M176.04 587.442C188.498 586.123 273.301 586.879 281.697 592.849C282.409 593.355 282.481 594.325 282.612 595.146C284.332 605.946 257.631 662.962 250.215 673.433C235.635 677.804 219.856 679.89 204.848 682.31C160.06 689.372 141.979 691.701 101.194 668.339C102.203 664.318 103.356 660.283 103.706 656.141C104.673 644.697 103.18 601.939 109.565 595.119C118.315 585.773 162.239 587.846 176.04 587.442Z"/>
	<path fill="#FEFEFE" d="M141.647 600.45C183.576 598.966 226.399 599.089 268.249 602.1C263.232 619.101 254.068 641.474 245.292 656.702C243.359 660.057 242.242 660.66 238.648 661.621L169.92 666.359C156.563 667.186 128.769 666.679 118.568 657.47C116.333 655.453 116.166 652.332 116.034 649.495C115.704 642.444 115.772 608.041 120.156 603.817C124.844 599.3 135.501 600.526 141.647 600.45Z"/>
	<path fill="#222731" d="M118.842 633.066C162.954 631.864 207.456 633.084 251.606 633.159C248.514 641.104 245.033 648.847 241.518 656.611C235.566 659.434 159.221 663.951 149.802 663.072C139.421 662.103 128.881 658.29 118.992 655.205C118.178 647.765 118.331 640.519 118.842 633.066Z"/>
	<path fill="#222731" d="M133.548 604.55Q198.932 602.642 264.287 605.375C261.112 612.032 258.91 620.155 254.697 626.201C252.922 628.749 252.169 628.577 249.25 629.024C233.705 629.158 126.551 630.628 120.886 628.113C117.332 622.189 119.778 611.701 120.451 604.976L133.548 604.55Z"/>
	<path fill="#222731" d="M756.558 491.244C786.833 494.032 818.565 485.385 844.516 506.456C858.327 517.67 866.511 535.534 868.263 553.038C870.407 574.472 864.512 593.029 850.981 609.578Q848.468 612.089 845.796 614.431C822.67 634.416 785.042 631.441 756.6 629.417C757.993 583.485 756.645 537.213 756.558 491.244Z"/>
	<path fill="#FEFEFE" d="M788.246 520.201C800.549 520.847 812.607 521.966 822.786 529.702C830.927 535.889 835.916 545.294 837.131 555.388C838.688 568.317 834.416 579.966 826.619 590.09C815.444 599.629 801.899 599.653 787.995 599.966Q787.713 560.082 788.246 520.201Z"/>
	<path fill="#222731" d="M1167.76 490.497C1183.29 488.812 1220.65 488.826 1234.81 492.963C1245.49 496.084 1253.89 502.735 1259.08 512.63C1265.21 524.318 1266.49 539.164 1262.49 551.725C1259.11 562.342 1252.53 570.047 1242.65 575.095C1243.02 575.355 1243.64 575.771 1244 576.099C1248.22 579.915 1266.48 604.455 1266.58 609.846C1267.08 610.649 1267.43 611.216 1267.67 612.139C1268.89 616.65 1268.8 626.477 1266.56 630.614C1257.67 631.823 1249.48 630.848 1241.21 627.499C1235.08 617.826 1219.21 588.713 1210.99 583.115L1196.61 582.95C1198.54 586.875 1198.06 591.253 1198.1 595.526C1198.16 602.544 1200.02 625.868 1195.23 630.736C1185.81 632.682 1174.53 631.178 1164.91 630.767C1168.15 623.414 1166.24 607.595 1166.22 599.288C1166.18 586.324 1163.84 495.739 1167.76 490.497Z"/>
	<path fill="#FEFEFE" d="M1196.98 518.495C1202.11 517.394 1209.6 517.009 1214.74 518.014C1221.05 519.249 1226.82 522.833 1230.3 528.284C1232.46 531.666 1233.29 535.522 1232.34 539.451C1231.44 543.165 1229.21 547.597 1225.81 549.501C1225.52 550.211 1225.34 550.571 1224.81 551.123C1219.56 556.61 1203.66 554.83 1196.31 554.76C1196.41 554.604 1196.51 554.452 1196.61 554.291C1199.72 548.784 1198.88 524.993 1196.98 518.495Z"/>
	<path fill="#222731" d="M401.605 693.409C404.209 692.961 406.927 693.09 409.566 693.067C409.802 693.817 409.965 694.346 409.984 695.139C410.43 713.754 398.014 742.584 385.63 756.31C380.324 762.191 373.998 766.608 366.293 768.676C353.049 772.232 299.651 769.442 283.879 767.926C277.086 767.273 269.642 764.807 262.928 765.179L262.489 767.868C288.126 780.38 417.714 777.181 421.915 780.675C396.728 789.116 286.672 781.792 255.984 778.346C252.802 777.989 249.565 777.738 247.515 775.153C246.572 764.993 262.429 727.666 269.709 718.727C272.332 715.508 276.731 713.29 280.647 712.112C292.222 708.628 305.917 707.726 317.905 705.758C345.75 701.189 373.495 696.061 401.605 693.409Z"/>
	<path fill="#FEFEFE" d="M399.013 707.448L400.606 707.717C400.859 708.563 401.043 709.114 400.961 710.008C399.745 723.237 384.954 748.871 374.61 756.909Q373.849 757.505 373.052 758.052Q372.255 758.598 371.425 759.093Q370.595 759.588 369.736 760.029Q368.876 760.47 367.99 760.856Q367.104 761.242 366.195 761.571Q365.287 761.9 364.359 762.17Q363.431 762.441 362.488 762.652Q361.546 762.863 360.591 763.014C346.102 765.412 284.397 763.344 269.159 761.485C265.867 758.696 263.417 755.642 262.95 751.206C262.101 743.157 265.909 733.993 271.06 727.973C274.572 723.869 279.323 720.287 284.551 718.74C296.437 715.22 310.741 715.327 323.153 714.184L399.013 707.448Z"/>
	<path fill="#222731" d="M393.818 712.487C394.184 712.671 394.664 713.557 394.905 713.906C392.492 723.092 387.915 731.966 383.493 740.328C346.82 739.035 309.809 739.925 273.095 739.8L272.063 739.071C272.032 738.807 271.986 738.545 271.972 738.279C271.848 735.922 274.655 732.623 276.088 730.943C280.257 726.055 284.165 724.252 290.338 722.571C301.657 719.489 314.896 719.491 326.627 718.446L393.818 712.487Z"/>
	<path fill="#222731" d="M270.084 744.421C307.192 743.801 344.367 744.814 381.49 744.707C378.756 747.73 375.74 750.516 372.815 753.354C371.236 754.4 369.613 755.447 367.864 756.189C359.217 759.858 280.025 760.325 272.72 756.895C270.79 755.989 269.879 754.488 269.178 752.54C268.222 749.888 268.852 746.842 270.084 744.421Z"/>
	<path fill="#222731" d="M1085.88 491.494C1100.61 490.266 1114.98 491.737 1128.73 497.446C1133.63 499.481 1141.73 503.396 1143.83 508.506C1140.7 515.202 1132.32 525.992 1125.63 529.225C1123.93 527.247 1121.32 526.109 1118.99 525.02C1107.35 519.593 1092.5 519.116 1080.53 523.746C1070.87 527.482 1063.47 535.37 1059.52 544.857C1054.81 556.183 1055.51 568.521 1060.38 579.664C1064.54 589.188 1073.87 596.04 1083.43 599.571C1091.44 602.529 1107.42 604.872 1115.45 601.067C1118.22 599.756 1119.29 597.98 1120.31 595.212C1119.08 587.929 1108.73 593.195 1103.88 589.466C1102.2 585.775 1100.87 582.215 1100.89 578.096C1100.91 574.706 1101.83 570.906 1104.44 568.553C1108.99 564.448 1118.93 566.221 1124.75 566.281C1132.61 566.178 1140.63 565.769 1148.45 566.593C1148.52 566.711 1148.6 566.826 1148.66 566.948C1148.76 567.149 1148.86 567.357 1148.96 567.56C1149.51 568.673 1149.99 569.775 1150.18 571.016C1151.16 577.549 1151.58 611.342 1148.53 615.557C1148.33 615.974 1148.25 616.176 1148 616.551C1143.44 623.412 1124.69 628.615 1117.04 630.356C1096.92 634.937 1074.43 632.402 1056.85 621.227Q1055.42 620.319 1054.03 619.342Q1052.64 618.365 1051.3 617.32Q1049.96 616.276 1048.67 615.168Q1047.39 614.059 1046.16 612.889Q1044.93 611.719 1043.75 610.489Q1042.58 609.26 1041.47 607.975Q1040.36 606.689 1039.32 605.351Q1038.27 604.013 1037.29 602.625Q1036.31 601.237 1035.41 599.803Q1034.5 598.369 1033.66 596.892Q1032.82 595.415 1032.06 593.899Q1031.29 592.382 1030.6 590.83Q1029.91 589.278 1029.3 587.694Q1028.69 586.11 1028.15 584.498Q1027.62 582.886 1027.17 581.25Q1026.71 579.614 1026.34 577.957C1022.23 559.475 1025.07 539.801 1035.32 523.781C1047.34 504.993 1064.65 496.088 1085.88 491.494Z"/>
	<path fill="#222731" d="M478.781 451.875L513.285 451.91C526.267 486.279 540.216 520.808 551.394 555.796Q571.919 504.323 591.883 452.629L624.484 452.813C616.785 472.927 608.282 492.721 600.35 512.744L550.959 637.591C526.714 575.749 505.707 512.675 478.781 451.875Z"/>
	<path fill="#222731" d="M473.315 552.359C476.113 552.115 476.548 552.081 479.008 553.387L479.045 554.804C472.018 560.098 428.963 568.965 417.801 571.796C423.853 576.629 429.271 582.169 431.931 589.603C435.671 600.058 432.375 609.744 427.789 619.223C448.666 609.409 468.486 594.476 485.791 579.403Q483.484 583.479 480.908 587.39C458.176 621.279 428.377 629.902 390.433 637.26C379.059 639.134 367.187 639.812 355.973 642.388C350.676 643.604 346.232 647.38 340.772 648.045C336.343 648.584 332.155 645.674 327.685 645.611C314.674 645.427 300.764 647.564 287.751 648.579C289.381 636.92 292.614 627.368 299.799 617.958C331.683 576.196 423.27 559.088 473.315 552.359Z"/>
	<path fill="#FEFEFE" d="M395.802 576.164C399.865 575.733 403.678 575.367 407.635 576.614C413.66 578.513 418.606 582.474 421.496 588.117C424.905 594.771 425.01 602.625 422.577 609.616C419.576 618.242 413.796 623.644 405.761 627.563C405.627 627.592 405.494 627.623 405.359 627.649C401.792 628.358 398.821 628.934 395.216 628.018C389.316 626.52 384.607 623.124 381.551 617.827C377.729 611.203 376.715 602.644 378.854 595.304C381.6 585.882 387.412 580.661 395.802 576.164Z"/>
	<path fill="#222731" d="M393.652 592.277C395.875 592.265 398.276 592.263 400.256 593.408C402.114 594.484 403.297 596.137 403.696 598.249C404.616 603.125 402.154 607.496 399.642 611.449L399.453 611.476C397.496 610.711 399.949 604.502 399.691 602.083C399.254 597.973 395.395 596.478 393.966 593.076C393.855 592.812 393.757 592.543 393.652 592.277Z"/>
	<path fill="#FEFEFE" d="M336.603 597.126C339.42 596.968 342.268 597.244 344.952 598.159C349.88 599.838 354.003 603.78 356.134 608.492C358.928 614.669 358.907 622.046 356.452 628.321C353.569 635.688 348.833 639.317 341.744 642.349C337.393 642.306 333.817 642.223 329.992 639.98C324.861 636.972 321.326 631.949 319.856 626.218C318.226 619.867 319.071 612.842 322.435 607.184C325.921 601.322 330.16 598.846 336.603 597.126Z"/>
	<path fill="#FEFEFE" d="M378.369 579.981L379.556 579.987L380.345 580.96Q379.901 581.564 379.471 582.178C373.905 590.14 370.583 599.354 372.485 609.122C374.482 619.379 380.562 626.067 388.991 631.609C380.458 633.369 371.662 634.337 363.035 635.587L361.567 635.043C363.859 626.308 367.033 617.819 364.037 608.837C361.188 600.294 354.645 595.675 346.959 591.858C357.349 587.553 367.69 583.525 378.369 579.981Z"/>
	<path fill="#FEFEFE" d="M315.89 608.798C316.36 610.553 315.706 612.781 315.538 614.592C314.554 625.224 315.832 631.23 321.91 639.924C314.561 640.729 307.112 641.052 299.734 641.562C297.996 641.855 296.913 641.804 295.198 641.375L294.747 639.349C297.272 628.443 308.445 616.768 315.89 608.798Z"/>
	<path fill="#222731" d="M566.608 703.676C568.896 704.553 570.788 705.276 572.633 706.968C573.103 710.697 569.899 715.274 568.294 718.746C584.068 726.889 599.281 741.412 611.497 754.223C613.3 749.572 615.436 745.827 618.538 741.927Q613.342 728.828 607.592 715.963C619.167 720.69 624.2 725.187 631.259 735.494C634.344 731.66 637.954 725.21 642.755 723.489C645.028 722.674 647.055 722.761 649.171 723.883L649.485 726.097C647.243 732.243 641.29 738.297 637.2 743.447C637.995 750.043 640.19 764.368 635.385 769.601C634.293 770.79 632.079 771.294 630.573 771.815C628.328 772.592 626.557 772.919 625.25 775.067C625.32 777.543 626.647 778.887 628.176 780.664C630.216 783.036 630.243 790.849 630.365 794.215C630.939 810.13 625.521 821.515 614.927 832.917C623.786 832.982 632.391 831.856 640.595 828.341C658.506 820.667 669.46 803.627 676.502 786.264C681.759 771.938 684.599 755.24 682.994 739.985C682.402 734.362 681.031 728.906 680.512 723.244C682.585 722.322 683.791 722.331 686.005 722.745C688.695 724.414 689.745 726.168 690.653 729.143C696.885 749.563 689.482 782.762 679.569 801.162C670.117 818.708 656.253 834.153 636.594 839.926C622.827 843.969 608.457 841.74 596.047 834.839C576.561 824.002 563.177 803.439 557.169 782.357C549.21 754.423 552.502 728.828 566.608 703.676Z"/>
	<path fill="#FEFEFE" d="M610.821 759.938C613.96 763.519 615.317 769.056 618.545 773.133C615.701 777.263 612.858 781.432 609.747 785.367C604.69 791.764 590.217 808.98 581.717 809.587C580.188 809.696 579.48 808.449 578.428 807.453C573.006 799.891 568.963 791.873 565.456 783.281C582.768 778.746 596.997 771.255 610.821 759.938Z"/>
	<path fill="#FEFEFE" d="M624.012 744.298C625.684 744.367 627.352 744.832 628.984 745.194C629.858 745.992 631.188 746.871 631.632 747.965C633.624 752.872 631.566 757.413 629.599 761.979C628.202 761.925 626.863 761.432 625.529 761.043C624.443 760.094 623.25 759.065 622.656 757.721C620.788 753.502 622.552 748.332 624.012 744.298Z"/>
	<path fill="#222731" d="M1390.7 451.498C1399.83 449.834 1410.62 450.874 1419.95 450.979C1421.03 451.757 1421.88 452.547 1422.69 453.609C1427.37 459.745 1457.55 517.636 1456.83 522.306C1457 522.159 1457.16 522.008 1457.33 521.864C1457.76 521.502 1458.18 521.145 1458.6 520.767C1463.27 516.466 1494.57 456.9 1494.84 451.238C1502.19 450.987 1520.99 448.567 1526.71 452.987L1526.89 455.514C1521.05 467.986 1496.5 517.428 1488.52 525.485C1488.69 527.218 1488.03 528.376 1487.31 529.921C1484.09 536.835 1477.17 544.799 1475.65 552.086C1472.49 567.249 1478.75 622.626 1473.35 630.693C1463.39 632.334 1451.56 631.054 1441.4 630.688C1445 624.037 1442.7 610.465 1442.68 602.888C1442.65 588.11 1445.52 568.968 1441.58 554.75C1436.82 537.581 1388.72 460.06 1390.7 451.498Z"/>
	<path fill="#222731" d="M1341.34 483.495L1344 483.631C1344.8 484.631 1345.53 485.663 1346.17 486.773C1352.76 498.181 1360.76 519.475 1366.59 532.445C1379.76 561.732 1394.12 591.01 1405.93 620.841C1406.94 623.389 1408.7 626.692 1408.05 629.329C1403.48 632.448 1393.31 631.187 1387.82 631.058C1385.16 630.995 1381.69 631.3 1379.24 630.269C1370.44 626.576 1370.27 609.278 1363.58 602.591C1363.45 602.456 1363.3 602.33 1363.16 602.199L1344.75 602.169L1321.28 602.302C1322.07 607.7 1314.8 621.498 1311.45 626.408C1309.57 629.153 1307.94 630.293 1304.62 630.823C1299.82 631.589 1282.92 632.165 1279.17 629.607C1278.16 621.263 1322.75 527.43 1328.97 513.658C1332.32 506.242 1341.08 491.035 1341.34 483.495Z"/>
	<path fill="#FEFEFE" d="M1341.21 552.494C1342.57 552.55 1343.22 552.95 1344.37 553.597C1347.66 560.222 1352.21 567.804 1353.21 575.196C1350.71 576.625 1345.73 575.991 1342.75 576.022L1330.73 575.807C1334.65 571.643 1341.01 558.194 1341.21 552.494Z"/>
	<path fill="#222731" d="M108.322 706.923C128.787 706.139 149.93 708.735 170.48 709.317C190.408 709.882 233.195 707.849 249.828 711.646C251.128 713.176 251.959 714.544 252.412 716.495C255.556 730.016 247.205 748.137 240.321 759.471C237.495 763.109 234.44 766.882 230.24 768.955C227.917 770.102 225.403 770.647 222.822 770.729C207.018 771.229 134.651 765.333 122.165 760.589C118.137 759.059 116.041 754.627 114.509 750.863C110.507 741.025 104.23 716.821 108.322 706.923Z"/>
	<path fill="#FEFEFE" d="M117.206 715.871C138.453 716.324 159.748 717.671 180.998 718.376C195.051 718.843 227.018 717.026 238.576 721.038C238.787 721.493 238.902 721.719 239.08 722.221C241.226 728.275 235.326 738.061 232.596 743.451C231.305 745.017 230.015 746.489 228.302 747.615C214.919 756.409 141.045 743.475 123.328 739.536C119.727 732.368 118.639 723.679 117.206 715.871Z"/>
	<path fill="#222731" d="M121.245 719.771C159.724 720.608 197.941 723.098 236.506 723.138C235.019 729.122 232.491 734.574 229.994 740.187C228.916 741.573 227.454 742.991 225.981 743.961C213.22 752.364 142.01 739.331 125.444 736.066C123.779 730.751 122.603 725.178 121.245 719.771Z"/>
	<path fill="#C0BA98" d="M1309.7 725.499C1326.06 724.811 1342.73 725.471 1359.1 725.805C1359.22 726.274 1359.23 726.282 1359.3 726.828C1359.38 727.424 1341.79 781.678 1340.53 784.849C1339.98 786.216 1339.17 787.398 1338.28 788.556C1338.09 788.797 1337.92 789.043 1337.72 789.278C1335.31 792.25 1328.96 795.037 1325.46 796.754C1296.38 811.036 1262.53 818.118 1230.3 820.514C1216.88 823.808 1198.51 821.275 1184.66 820.534C1205.37 818.744 1225.18 815.844 1243.92 806.217C1275.1 790.206 1299.1 758.559 1309.7 725.499Z"/>
	<path fill="#222731" d="M484.546 514.167L485.298 514.226C487.759 516.268 488.514 519.644 489.691 522.603Q439.459 532.528 390.365 547.071C366.04 554.325 332.24 567.792 308.181 570.485C287.376 572.815 264.48 569.214 243.557 568.335C204.905 566.711 167.593 567.379 129.223 572.614C127.113 573.09 125.338 572.92 123.212 572.709C130.618 564.573 189.776 561.334 202.708 561.164Q231.642 561.023 260.546 562.367C275.205 563.148 290.907 565.32 305.517 563.688C330.688 560.878 362.017 547.022 387.204 539.405C419.331 529.689 451.916 521.954 484.546 514.167Z"/>
	<path fill="#222731" d="M1244.75 724.896C1247.88 724.865 1253.03 724.37 1255.64 725.977C1255.47 727.146 1255.2 728.294 1254.76 729.393C1250.25 740.579 1238.92 751.647 1227.93 756.098C1217.48 760.327 1205.9 759.557 1195.67 755.079C1183.18 749.613 1172.78 738.187 1167.84 725.497C1184.81 723.392 1203.78 725.023 1220.96 725.065C1221.97 728.396 1220.51 731.524 1219.44 734.66C1217 741.784 1209.29 745.281 1207.29 751.421C1207.79 751.9 1207.92 752.089 1208.46 752.438C1211.53 754.427 1219.25 753.888 1222.73 753.172C1234.46 750.756 1235.69 733.495 1241.21 725.382L1244.75 724.896Z"/>
	<path fill="#222731" d="M499.308 623.727L508.864 664.713C494.306 690.569 489.593 720.429 487.701 749.68L486.639 753.737C486.397 753.363 486.111 752.967 485.935 752.549C484.175 748.362 484.5 741.174 484.178 736.546C481.591 699.325 487.049 659.122 499.308 623.727Z"/>
	<path fill="#222731" d="M669.57 751.194C670.037 751.57 670.372 751.787 670.737 752.241C674.256 756.613 674.328 766.267 673.699 771.53C672.344 782.88 666.477 796.569 657.23 803.742C654.754 804.058 654.816 804.043 652.809 802.549C650.008 796.146 647.043 788.601 645.655 781.766C644.287 775.035 644.568 768.086 648.615 762.297C653.353 755.517 661.79 752.628 669.57 751.194Z"/>
	<path fill="#222731" d="M952.778 723.467C954.591 723.317 956.487 723.487 958.308 723.536C950.367 727.408 796.222 743.711 775.863 745.22L771.567 745.518C780.877 735.898 926.498 724.908 952.778 723.467Z"/>
	<path fill="#222731" d="M398.547 665.452C404.442 665.309 415.042 665.148 419.613 669.176C420.602 671.57 420.983 672.005 420.407 674.482C416.809 676.714 395.374 674.238 389.127 674.126Q359.431 673.551 329.868 676.42C321.794 677.034 313.758 678.111 305.67 678.526C326.585 669.901 374.966 666.467 398.547 665.452Z"/>
	<path fill="#222731" d="M429.742 542.432L431.223 542.553C385.64 556.443 348.247 572.621 308.971 600.093L307.524 600.697C307.694 600.063 307.817 599.568 308.178 599.01C327.312 569.46 396.035 549.19 429.742 542.432Z"/>
	<path fill="#222731" d="M1064.67 439.475C1065.5 439.312 1066.32 439.182 1067.16 439.114C1069.5 438.924 1071.76 439.243 1073.48 441.012C1075.51 443.1 1075.39 444.243 1075.27 446.931C1073.23 449.645 1072.27 449.965 1069.22 451.179C1067.52 451.766 1066.67 451.369 1064.93 451.003C1064.24 450.252 1063.6 449.475 1063.23 448.506C1061.96 445.166 1063.39 442.467 1064.67 439.475Z"/>
	<path fill="#222731" d="M1086.3 450.485C1089.12 450.332 1090.5 450.567 1092.86 452.144C1094.44 454.722 1094.54 455.019 1094.36 458.03C1092.59 460.588 1092.14 460.77 1089.23 461.951L1086.06 461.442C1083.8 459.35 1083.57 458.964 1082.8 455.98C1083.58 452.94 1084.07 452.492 1086.3 450.485Z"/>
	<path fill="#222731" d="M1101.2 470.486C1103.44 470.186 1105.8 469.774 1107.66 471.398C1109.84 473.295 1109.88 474.285 1110.12 476.982C1108.63 479.759 1107.95 480.077 1105.28 481.513C1103.03 481.811 1102.61 481.61 1100.51 480.676C1099.97 479.799 1099.43 478.893 1099.17 477.886C1098.43 475.021 1099.88 472.841 1101.2 470.486Z"/>
	<path fill="#222731" d="M1110.85 450.489C1112.96 450.103 1115.75 449.341 1117.64 450.706C1119.91 452.353 1120.34 453.254 1120.73 455.944C1119.29 458.522 1118.81 458.772 1116.2 460.209C1115.08 460.877 1113.79 460.658 1112.51 460.686L1110.49 458.64C1109.46 455.331 1109.62 453.716 1110.85 450.489Z"/>
	<path fill="#222731" d="M1030.57 483.328C1032.48 483.087 1035.15 482.499 1036.74 483.832C1038.84 485.587 1039.03 486.39 1039.21 488.937C1037.67 491.714 1036.98 492.12 1034.32 493.614C1034.07 493.66 1033.82 493.759 1033.56 493.754C1031.14 493.709 1030.28 492.687 1029.07 490.911C1028.66 487.667 1029.04 486.171 1030.57 483.328Z"/>
	<path fill="#222731" d="M1063.59 471.466C1065.88 471.224 1067.24 471.305 1069.35 472.26C1070.99 474.24 1071.14 474.384 1071.26 476.935C1069.57 479.58 1068.91 479.911 1066.18 481.187C1063.59 480.765 1062.79 479.89 1061.36 477.908C1061.48 474.735 1061.92 474.018 1063.59 471.466Z"/>
	<path fill="#222731" d="M1040.95 458.424C1042.45 458.283 1043.99 458.313 1045.49 458.283C1047.72 459.803 1047.98 459.847 1048.77 462.386C1047.43 465.153 1046.8 465.511 1044.27 467.032C1043.46 467.342 1042.36 467.186 1041.49 467.182L1040.13 465.737C1039.35 462.649 1039.75 461.255 1040.95 458.424Z"/>
	<path fill="#222731" d="M1011.49 470.436C1014.36 471.215 1015.49 471.441 1017.67 473.578C1018.36 476.388 1017.4 478.189 1016.3 480.697C1013.85 479.959 1012.38 479.282 1010.55 477.468C1009.97 474.365 1010.46 473.322 1011.49 470.436Z"/>
	<path fill="#C0BA98" d="M1616.83 483.497C1621.93 482.675 1630.68 486.059 1635.39 488.233C1642.49 498.706 1658.27 513.696 1671.08 516.775C1677.27 518.264 1681.89 514.147 1686.83 511.096C1689.85 511.142 1690.28 511.627 1692.58 513.384C1694.51 524.302 1676.07 611.139 1670.39 624.298C1664.09 638.893 1645.21 648.656 1631.18 654.294C1642.3 653.197 1656.75 650.652 1665.55 643.31C1665.85 644.019 1666.15 644.8 1666.25 645.567C1668.47 662.649 1643.09 860.777 1637.04 869.185C1620.28 868.897 1603.51 868.976 1586.75 868.914L1533.26 868.855C1541.62 864.015 1548.52 854.784 1556.56 848.938C1569.17 839.771 1582.89 835.037 1598.62 837.562C1605.57 838.679 1616.48 841.759 1620.79 847.667C1620.5 846.357 1620.11 844.951 1619.35 843.822C1612.3 833.383 1594.75 829.621 1583.07 828.016C1586.15 815.083 1584.08 798.042 1584.19 784.647Q1584.52 755.992 1585.92 727.369Q1587.39 701.504 1590.01 675.731C1591.18 664.705 1594.03 651.885 1593.19 640.965C1598.02 643.292 1606.64 649.808 1609.6 654.218C1608.8 644.145 1594.77 637.591 1595.19 620.415C1595.88 591.55 1603.35 552.536 1609.37 524.024C1611.83 512.375 1615.01 500.788 1617.03 489.058C1617.37 487.042 1617.39 485.488 1616.83 483.497Z"/>
	<path fill="#FEFEFE" d="M1697.39 560.497L1698.45 560.7C1702.22 564.061 1703.89 574.744 1705.34 579.865C1710.75 598.998 1719.23 616.653 1725.35 635.448C1731.25 653.535 1735.5 672.131 1741.58 690.23C1751.04 718.436 1761.19 746.776 1773.47 773.892Q1780.74 789.811 1788.62 805.441C1792.81 813.585 1801.44 824.938 1803.25 833.473C1800.66 837.981 1786.34 846.567 1781.55 852.628C1776.49 859.013 1776.34 866.943 1772.62 873.437C1772.53 873.585 1772.44 873.729 1772.35 873.875L1754.75 873.883L1648.81 873.936C1649.45 873.189 1650.06 872.366 1650.36 871.416C1655.28 855.911 1657.71 829.77 1660.17 813.009Q1668.51 757.416 1674.13 701.483C1676.1 681.047 1676.1 659.044 1679.71 638.907C1681.85 626.965 1686.38 615.207 1689.23 603.354C1692.34 590.411 1697.68 573.779 1697.39 560.497Z"/>
	<path fill="#C0BA98" d="M1702.07 521.497C1708.11 521.166 1722.37 535.439 1727.38 539.923C1749.69 559.892 1767.62 582.815 1783.33 608.198C1786.01 612.521 1790.86 618.836 1791.14 623.932C1791.2 624.402 1791.31 625.084 1791.27 625.588C1790.75 632.262 1783.66 642.772 1778.7 646.892Q1779.8 646.295 1780.89 645.663C1786.04 642.653 1793.22 636.814 1794.8 630.855C1795.68 631.521 1796.52 632.297 1797.26 633.111C1813.53 650.961 1876.6 818.608 1875.41 844.75L1873.74 845.501C1872.14 842.817 1868.77 840.249 1866.27 838.34C1851.78 827.278 1832.94 827.85 1815.87 830.018C1814.18 821.38 1795.49 792.805 1790.66 781.712Q1770.32 734.226 1753.58 685.354C1750.84 677.204 1744.14 650.393 1739.3 644.895C1739.04 644.593 1738.75 644.311 1738.46 644.029C1744.46 645.728 1752.12 648.812 1757.12 652.542C1753.93 644.247 1739.88 637.95 1735.69 628.029C1729.18 612.654 1723.54 596.25 1718.66 580.281C1715.19 568.923 1706.75 528.172 1702.07 521.497Z"/>
	<path fill="#FEFEFE" d="M474.276 811.471C477.273 811.292 484.245 830.555 486.518 834.22C497.377 851.723 512.033 863.973 529.939 873.679C467.754 874.865 405.314 873.715 343.106 873.533Q313.997 873.742 284.893 873.149C313.474 859.94 330.707 843.233 345.119 815.165Q409.76 815.505 474.276 811.471Z"/>
	<path fill="#C0BA98" d="M1678.6 280.499C1679.34 280.942 1679.93 281.428 1680.53 282.037C1684.45 285.978 1705.93 325.864 1705.92 329.671C1706.01 330.092 1706.13 330.578 1706.18 331.016C1706.87 336.845 1695.28 374.034 1691.97 378.275C1687.95 382.188 1676.34 386.117 1670.89 388.133C1652.25 395.028 1640.87 395.652 1622.54 387.283C1622.57 387.042 1622.6 386.802 1622.62 386.561C1622.84 383.075 1604.67 351.768 1601.51 348.508C1601.25 338.015 1581.5 319.07 1578.58 309.859L1580.51 308.524C1586.92 309.553 1589.3 321.367 1593.18 326.213C1595.39 328.962 1599.42 330.922 1602.92 331.16C1605.46 331.333 1607.82 330.281 1609.61 328.493C1613.02 325.066 1614.21 319.548 1614.16 314.867C1614.09 308.93 1611.81 304.124 1607.65 300.011C1621.15 298.103 1638.85 291.837 1651.19 286.013C1656.43 292.796 1654.88 299.779 1663.54 304.856C1665.87 306.225 1668.77 306.96 1671.42 306.171C1674.87 305.143 1677.23 302.245 1678.69 299.084C1681.44 293.123 1680.82 286.517 1678.6 280.499Z"/>
	<path fill="#C0BA98" d="M1759.49 415.499C1761.76 415.037 1763.64 414.675 1765.98 415.047C1768.41 417.7 1769.82 421.442 1771.18 424.739C1780.9 448.325 1807.77 568.303 1800.44 585.741C1800.46 585.104 1800.44 584.502 1800.3 583.875C1798.99 578.032 1779.99 554.582 1774.26 550.952C1774.21 550.689 1774.17 550.419 1774.09 550.162C1770.22 537.746 1712.99 494.151 1699.7 486.114C1702.28 484.308 1704.1 482.406 1705.64 479.633C1708.24 474.987 1709.88 467.995 1708.47 462.764C1715.13 456.165 1744.15 425.158 1745.86 418.706C1750.48 417.933 1755.14 417.342 1759.49 415.499Z"/>
	<path fill="#FEFEFE" d="M1565.53 319.497L1568.73 319.723C1569.59 320.423 1570.4 321.168 1571.1 322.028C1581.97 335.501 1619.29 399.929 1617.61 414.957C1615.94 421.083 1614.5 431.926 1610.29 436.527C1606.39 432.511 1555.18 414.223 1546.46 411.509C1542.51 407.626 1474.7 384.139 1467.12 382.705C1479.96 380.511 1522.75 370.487 1531.06 360.533C1533.35 357.795 1533.47 355.07 1533.24 351.709C1539.58 347.057 1563.28 325.932 1565.53 319.497Z"/>
	<path fill="#C0BA98" d="M1682.79 203.499C1691.25 202.291 1701.52 202.717 1709.44 206.112C1727.5 213.858 1755.37 274.055 1763.41 294.137C1767.25 303.75 1779.58 332.477 1775.93 341.016C1774.28 341.758 1773.62 340.601 1772.18 339.622C1757.82 329.823 1742.27 323.819 1725.03 321.339C1725.11 320.968 1725.24 320.407 1725.25 319.999C1725.26 315.029 1719.75 302.086 1716.28 298.652C1716.44 297.497 1716.36 296.819 1716.09 295.69C1713.35 284.123 1695.52 252.457 1684.97 245.976C1685.46 246.707 1685.94 247.436 1686.36 248.219C1689.18 253.561 1688.74 265.425 1687.01 271.213C1691.34 273.736 1695.69 279.227 1698.56 283.346C1703.72 290.75 1712.9 307.685 1711.21 316.794L1709.75 317.413C1699.47 308.311 1687.66 273.939 1678.1 265.8C1677.94 265.662 1677.76 265.535 1677.6 265.403C1677.78 264.957 1682.9 204.449 1682.79 203.499Z"/>
	<path fill="#C0BA98" d="M1708.86 352.498C1716.34 351.281 1727.76 356.197 1734.62 359.262C1742.41 362.743 1761.9 372.446 1765.06 380.792C1763.25 388.619 1708.13 450.979 1700.22 458.102C1702.68 479.571 1694.05 477.337 1683.36 491.849C1680.48 495.757 1679.65 501.174 1677.51 505.496C1676.41 507.697 1675.35 508.814 1673.03 509.638C1670.54 508.931 1669.31 508.445 1667.58 506.46C1665.08 503.595 1669.26 496.523 1669.46 492.957C1669.47 492.804 1669.47 492.652 1669.48 492.499C1669.64 492.328 1669.81 492.159 1669.98 491.986C1673.01 488.82 1674.58 486.356 1674.47 481.873C1671.68 486.715 1666.88 489.907 1664.25 495.004C1662.9 497.616 1662.78 501.753 1660.42 503.31C1659.53 502.946 1658.72 502.537 1657.97 501.914C1647.18 492.944 1664.76 480.853 1664.62 474.237L1661.99 474.027C1656.01 476.983 1652.93 485.979 1649.77 491.583C1647.96 491.351 1647.56 491.416 1646.35 489.88C1636.58 477.379 1656.84 470.176 1657.4 458.389C1657.41 458.227 1657.41 458.064 1657.41 457.901C1663.56 455.879 1677.03 450.802 1680.5 445.301C1684.66 438.455 1709.52 358.481 1708.86 352.498Z"/>
	<path fill="#C0BA98" d="M1582.48 96.4992C1588.01 96.088 1593.7 95.495 1599.23 96.1417C1613.34 97.7919 1628.22 105.956 1636.92 117.402C1639.82 121.22 1644.99 129.844 1644.28 134.759C1633.22 141.102 1618.35 136.802 1606.42 139.158C1585.02 143.387 1566.01 154.16 1545.39 160.483C1541.55 163.523 1535.12 165.219 1530.48 166.837Q1508.87 162.943 1486.95 161.582C1494.51 159.888 1529.53 147.109 1534.76 142.657C1539.15 132.961 1538.97 124.78 1545.56 114.357C1552.46 103.442 1570.6 99.0997 1582.48 96.4992Z"/>
	<path fill="#222731" d="M1609.36 122.5C1615.42 122.2 1620.94 122.264 1626.67 124.445L1626.58 125.595C1616.62 129.092 1601.22 129.248 1590.21 130.924C1584.1 132.542 1578.13 133.641 1571.86 134.453C1584.76 129.677 1595.48 124.529 1609.36 122.5Z"/>
	<path fill="#222731" d="M1595.52 110.499Q1596.61 110.357 1597.7 110.238C1607.15 109.207 1618.58 108.334 1626.44 114.631C1620.5 115.731 1612.87 114.8 1606.75 114.741C1596.6 114.946 1586.28 116.344 1576.17 117.347C1582.72 115.661 1589.18 112.866 1595.52 110.499Z"/>
	<path fill="#C0BA98" d="M1474.48 308.499L1477.37 309.187C1481.21 312.669 1484.09 317.315 1486.5 321.876C1490.9 330.2 1500.43 353.616 1497.69 362.541C1493.48 366.038 1476.28 370.173 1470.05 371.19C1463.97 372.181 1465.51 370.716 1460.82 367.932C1453.74 363.722 1422.91 375.481 1414.17 378.017C1404.05 380.953 1391.19 386.856 1381.45 381.498C1377.42 379.178 1364.35 386.962 1358.61 387.161C1356.8 387.223 1356.65 387.183 1355.33 385.989C1355.85 381.198 1361.09 378.009 1362.66 373.415C1362.71 373.256 1362.76 373.093 1362.81 372.932C1365.54 372.92 1368.3 372.907 1371.02 372.647C1391.41 370.703 1461.11 324.451 1474.48 308.499Z"/>
	<path fill="#C0BA98" d="M1550.31 251.498L1553.27 251.728C1557.69 256.629 1571.55 279.346 1571.59 286.073C1571.62 286.667 1571.67 286.805 1571.5 287.468C1568.76 298.618 1540.11 330.833 1529.74 337.503L1529.16 338.327C1524.21 335.135 1519.03 306.539 1508.7 298.443C1511.8 295.758 1549.29 253.348 1550.31 251.498Z"/>
	<path fill="#C0BA98" d="M1655.31 212.498L1656.91 214.128C1655.19 223.605 1653.84 233.329 1653.01 242.931C1652.25 251.759 1654.06 270.629 1650.78 277.81C1645.83 282.483 1611.56 292.188 1603.34 294.47C1603.37 294.042 1603.44 293.354 1603.38 292.892C1602.5 286.026 1586.25 257.688 1580.37 252.727C1580.13 248.085 1574.4 242.472 1571.17 239.426C1574.88 238.398 1578.98 237.164 1581.93 234.599C1585.83 236.65 1615.1 265.702 1617.81 270.303C1627.64 262.35 1629.64 242.535 1636.59 231.811C1641.42 224.356 1650.46 220.078 1655.31 212.498Z"/>
	<path fill="#FEFEFE" d="M1691.56 493.498C1692 493.448 1692.44 493.397 1692.88 493.373C1701.02 492.94 1735.18 522.028 1742.09 528.185C1789.74 570.697 1820.58 630.448 1844.58 688.736C1848.47 698.178 1855.86 710.385 1856.45 720.419C1855.12 723.427 1854.03 723.279 1851.07 724.501L1850.46 725.289C1847.27 723.264 1827.22 671.552 1823.34 663.149C1811.83 638.23 1798.56 613.364 1783.27 590.542C1762.39 559.371 1734.55 529.043 1702.52 509.027C1699.14 506.913 1691.85 503.801 1690.23 500.075C1689.15 497.604 1690.59 495.825 1691.56 493.498Z"/>
	<path fill="#C0BA98" d="M1684.93 388.498C1686.67 388.051 1687.84 388.013 1689.6 388.356C1688.55 395.582 1675.76 436.558 1672.23 440.431C1665.1 446.842 1647.98 449.419 1638.73 451.353C1635.39 447.963 1627.3 445.583 1622.76 443.991C1625.54 439.917 1626.7 432.051 1626.34 427.134L1638.75 427.995C1647.81 428.17 1659.45 427.108 1667.65 423.07C1658.71 417.887 1640.34 413.63 1630.16 412.897C1630.35 412.341 1630.47 412.099 1630.54 411.546C1631.16 406.527 1627.15 399.809 1624.1 396.143C1628.94 397.785 1634.1 399.823 1639.18 400.459C1652.69 402.147 1674.25 397 1684.93 388.498Z"/>
	<path fill="#C0BA98" d="M1830.56 838.5C1834.67 838.294 1838.77 838.117 1842.85 838.812C1853.43 840.611 1865.62 846.722 1871.84 855.627C1874.26 859.11 1876.68 863.884 1875.93 868.232L1831.75 868.27L1785.92 868.256C1788.88 865.774 1790.85 861.861 1793.28 858.877C1803.37 846.48 1815.21 841.329 1830.56 838.5Z"/>
	<path fill="#FEFEFE" d="M1611.77 149.499C1618.12 148.439 1624.01 148.094 1629.79 151.329Q1630.3 151.616 1630.8 151.929Q1631.3 152.242 1631.79 152.579Q1632.27 152.916 1632.74 153.277Q1633.2 153.638 1633.65 154.022Q1634.1 154.405 1634.53 154.811Q1634.96 155.217 1635.36 155.643Q1635.77 156.07 1636.15 156.516Q1636.54 156.963 1636.9 157.428Q1637.26 157.893 1637.6 158.375Q1637.94 158.858 1638.26 159.357Q1638.57 159.856 1638.86 160.37Q1639.15 160.884 1639.41 161.411Q1639.67 161.939 1639.91 162.479Q1640.15 163.02 1640.36 163.571Q1640.56 164.122 1640.75 164.683Q1640.93 165.245 1641.08 165.814C1642.84 172.188 1642.26 179.425 1638.93 185.205C1635.48 191.186 1630.73 194.314 1624.18 195.977C1621.69 197.538 1617.21 196.976 1614.46 196.416C1608.66 195.231 1603.95 191.397 1600.84 186.443Q1600.51 185.913 1600.2 185.366Q1599.89 184.82 1599.61 184.259Q1599.33 183.699 1599.07 183.125Q1598.82 182.551 1598.6 181.965Q1598.37 181.379 1598.18 180.783Q1597.98 180.187 1597.82 179.582Q1597.65 178.978 1597.52 178.365Q1597.38 177.753 1597.28 177.135Q1597.17 176.516 1597.1 175.894Q1597.02 175.271 1596.98 174.645Q1596.93 174.02 1596.92 173.393Q1596.91 172.766 1596.92 172.139Q1596.94 171.512 1596.99 170.887Q1597.04 170.261 1597.12 169.639Q1597.2 169.017 1597.31 168.4Q1597.42 167.782 1597.56 167.171C1599.58 158.573 1604.59 153.97 1611.77 149.499Z"/>
	<path fill="#222731" d="M1614.25 153.499C1619.42 152.792 1623.87 152.926 1628.47 155.68C1633 158.384 1636.22 163.121 1637.36 168.236C1638.56 173.653 1637.75 179.234 1634.73 183.92C1631.61 188.759 1627.67 190.677 1622.19 191.797C1619.44 192.171 1617.04 192.193 1614.33 191.498C1609.98 190.384 1606.22 187.886 1603.98 183.949C1601.03 178.754 1600.86 172.169 1602.53 166.54C1604.52 159.839 1608.31 156.761 1614.25 153.499Z"/>
	<path fill="#FEFEFE" d="M1298.56 402.499C1302.38 403.534 1306.06 402.653 1309.7 403.483C1312.41 404.101 1312.92 404.731 1314.26 407.04C1314.21 409.647 1314.18 411.878 1313.23 414.357C1295.89 421.587 1256.01 429.105 1236.21 433.051C1233.72 434.285 1230.95 434.448 1228.23 434.81C1227.57 429.821 1226.37 423.574 1223.11 419.604C1237.21 418.152 1284.86 407.443 1298.56 402.499Z"/>
	<path fill="#FEFEFE" d="M1715.72 330.498C1727.72 327.95 1748.28 336.571 1758.75 342.331C1764.78 345.65 1776.91 353.063 1778.91 359.974C1778.89 360.309 1778.89 360.645 1778.86 360.979C1778.53 364.294 1774.86 368.39 1772.42 370.503C1772.09 371.862 1771.93 372.081 1770.97 373.11C1766.23 371.388 1761.63 365.978 1757.57 362.871C1744.79 353.087 1726.48 346.502 1710.64 344.398C1711.17 343.851 1711.36 343.682 1711.81 343.135C1714.5 339.823 1716.23 334.749 1715.72 330.498Z"/>
	<path fill="#FEFEFE" d="M1556.37 200.498C1557.04 200.347 1557.7 200.255 1558.36 200.116C1564.77 198.777 1570.47 204.097 1576.95 204.078C1581.12 204.066 1584.95 200.862 1589.32 200.441C1591.85 201.564 1592.1 201.68 1593.49 204.052C1593.54 205.573 1593.45 206.982 1593 208.44C1590.98 214.963 1583.6 223.67 1577.54 226.5L1577 227.355C1573.35 229.693 1570.33 230.903 1565.92 230.429C1558.43 229.623 1550.88 223.803 1546.45 217.977C1544.55 215.49 1542.54 212.427 1543.07 209.166C1543.73 205.169 1552.59 203.076 1555.9 200.834C1556.06 200.725 1556.21 200.61 1556.37 200.498Z"/>
	<path fill="#FEFEFE" d="M1483.79 301.497L1484.39 301.468C1490.21 301.138 1497.35 303.53 1502.69 305.759C1502.9 305.938 1503.11 306.11 1503.31 306.296C1509.39 311.894 1521.44 344.456 1521.43 353.032C1519.82 355.24 1517.09 355.703 1514.59 356.498C1512.05 358.987 1506.86 359.843 1503.47 360.776C1503.76 360.186 1504 359.609 1504.16 358.971C1506.83 348.655 1496.51 325.983 1491.16 317.002C1488.47 312.484 1484.89 308.491 1482.44 303.861L1483.79 301.497Z"/>
	<path fill="#FEFEFE" d="M1854.41 727.498C1856.18 727.238 1857.79 727.351 1859.58 727.494C1865.33 735.691 1884.96 797.91 1888.83 810.98C1887.25 813.743 1886.06 813.77 1883.18 814.966C1882.54 815.506 1881.59 815.592 1880.78 815.788C1878.95 814.059 1852.97 738.642 1852.27 733.411C1851.86 730.401 1852.61 729.75 1854.41 727.498Z"/>
	<path fill="#FEFEFE" d="M1565.75 431.497C1575.89 430.008 1631.47 456.826 1643.43 463.389L1643.14 464.407L1644.89 464.549C1644.23 466.966 1642.16 468.074 1640.24 469.503C1639.91 470.493 1639.62 470.808 1638.94 471.571C1620.88 462.789 1602.53 454.86 1584.15 446.754C1580.01 444.924 1570.37 442.897 1567.48 440.138C1564.78 437.553 1565.57 434.893 1565.75 431.497Z"/>
	<path fill="#FEFEFE" d="M1480.42 399.497C1480.75 399.47 1481.08 399.435 1481.41 399.417C1486.44 399.133 1554.89 424.709 1558.27 427.872C1558.49 428.074 1558.69 428.288 1558.9 428.496L1559.82 428.66L1560.16 429.447C1559.45 431.84 1558.25 433.361 1556.72 435.258C1551.91 435.048 1488.24 409.687 1480.69 405.945C1480.66 403.787 1480.58 401.65 1480.42 399.497Z"/>
	<path fill="#C0BA98" d="M1639.71 198.5C1639.9 198.564 1640.09 198.602 1640.26 198.692C1642.45 199.855 1646.36 206.758 1647.34 209.074C1642.24 213.686 1634.49 217.294 1630.29 222.659C1625 229.414 1625.82 242.375 1619.61 248.491L1617.15 247.503C1617.19 247.027 1617.27 246.389 1617.22 245.89C1616.63 240.191 1610.12 229.512 1605.98 225.626C1618.55 220.719 1630.12 207.817 1639.71 198.5Z"/>
	<path fill="#FEFEFE" d="M1669.53 202.498C1672.08 202.399 1673.4 201.919 1675.54 203.542C1672.89 213.03 1671.8 224.494 1670.93 234.343C1670.3 241.478 1672.22 263.896 1669.08 268.843C1668.23 270.168 1665.72 270.264 1664.2 270.597C1663.54 270.977 1662.6 271.123 1661.86 271.331C1660.7 269.398 1660.69 267.854 1660.64 265.685C1660.36 254.689 1662.68 209.672 1669.53 202.498Z"/>
	<path fill="#FEFEFE" d="M1559.59 241.492C1560.7 241.381 1561.78 241.288 1562.86 241.619C1568.91 243.468 1592.45 287.314 1596.16 296.032C1595.26 297.733 1593.3 297.904 1591.51 298.5L1588.98 299.89C1588.64 299.674 1560.55 248.463 1559.47 245.294Q1559.31 244.833 1559.24 244.351Q1559.16 243.869 1559.18 243.382Q1559.19 242.895 1559.3 242.418Q1559.4 241.942 1559.59 241.492Z"/>
	<path fill="#C0BA98" d="M1452.14 376.499Q1455.06 375.993 1457.97 375.41L1459.56 377.444C1459.76 380.362 1459.97 380.681 1458.33 383.049C1455.74 383.854 1453.88 383.474 1451.36 382.751C1446.14 381.251 1405.56 393.09 1397.19 394.939C1395.19 395.91 1393.6 396.277 1391.39 396.469L1390.31 395.002L1390.99 393.546C1410.79 386.276 1432.12 383.232 1452.14 376.499Z"/>
	<path fill="#C0BA98" d="M1595.17 222.499C1595.36 222.536 1595.56 222.547 1595.75 222.609C1600.38 224.149 1610.24 242.957 1612.69 247.545C1613.95 249.901 1615.69 252.712 1614.89 255.338L1611.44 253.566C1609.54 248.636 1593.62 234.593 1589.09 230.072C1592.11 228.103 1593.73 225.725 1595.17 222.499Z"/>
	<path fill="#FEFEFE" d="M1351.01 395.492C1352.54 395.861 1352.57 395.865 1353.55 397.094C1353.82 402.383 1355.32 414.756 1351.6 418.728C1350.52 419.878 1348.33 419.482 1346.79 419.506C1346.45 418.909 1346.14 418.31 1345.89 417.666C1343.32 410.867 1348.43 401.628 1351.01 395.492Z"/>
	<path fill="#FEFEFE" d="M1338.46 391.498L1342.5 391.105L1343.4 392.063C1343.29 394.648 1341.72 396.031 1340.12 397.889L1327.19 400.892L1325.22 400.377L1323.69 396.962C1326.32 393.631 1334.25 392.543 1338.46 391.498Z"/>
	<path fill="#FEFEFE" d="M1366.47 394.495L1368.34 395.695C1368.68 400.86 1369.76 410.021 1367.23 414.625C1366.43 416.077 1364.9 416.073 1363.37 416.521L1362.06 414.494C1361.31 407.539 1364.18 400.923 1366.47 394.495Z"/>
	<path fill="#FEFEFE" d="M1378.58 391.493C1379.16 392.006 1379.8 392.559 1380.17 393.251C1382.19 397.027 1381.81 406.994 1380.69 410.921C1380.09 413.009 1379.03 413.103 1377.21 414.149C1374.66 410.092 1377.91 396.488 1378.58 391.493Z"/>
	<path fill="#C0BA98" d="M980.937 165.438C1075.83 165.573 1168.49 190.363 1248.13 242.718Q1255.05 247.302 1261.81 252.105Q1268.58 256.908 1275.19 261.924Q1281.8 266.94 1288.25 272.164Q1294.69 277.389 1300.97 282.816Q1307.24 288.244 1313.34 293.869Q1319.44 299.494 1325.36 305.311Q1331.28 311.128 1337.01 317.131Q1342.74 323.134 1348.27 329.316C1351.51 332.923 1359.12 340 1360.06 344.546C1357.3 348.544 1324.79 365.549 1318.78 367.932C1318.57 367.004 1318.27 366.054 1317.71 365.27C1311.66 356.793 1302.92 349.485 1295.48 342.164C1244.12 291.657 1166.9 245.01 1096.2 229.28C1082.03 224.193 1064.7 222.13 1049.8 219.958Q1046.15 219.394 1042.49 218.893Q1038.83 218.392 1035.16 217.954Q1031.5 217.515 1027.82 217.14Q1024.15 216.764 1020.47 216.451Q1016.79 216.139 1013.1 215.889Q1009.42 215.639 1005.73 215.452Q1002.04 215.266 998.35 215.142Q994.659 215.018 990.966 214.958Q987.273 214.898 983.579 214.9Q979.886 214.903 976.193 214.969Q972.5 215.035 968.809 215.164Q965.118 215.293 961.43 215.485Q957.741 215.677 954.057 215.933Q950.372 216.188 946.693 216.506Q943.013 216.824 939.339 217.206Q935.666 217.587 931.999 218.031Q928.332 218.474 924.674 218.981Q921.015 219.487 917.366 220.057Q913.717 220.626 910.078 221.257Q906.439 221.888 902.811 222.582Q899.183 223.275 895.568 224.031Q891.953 224.786 888.351 225.603Q884.749 226.421 881.162 227.299Q877.575 228.178 874.003 229.118Q870.431 230.058 866.876 231.059Q863.321 232.06 859.783 233.121Q856.246 234.183 852.727 235.304Q849.208 236.426 845.708 237.608Q842.209 238.79 838.731 240.032Q835.253 241.273 831.796 242.574Q828.339 243.875 824.905 245.235Q821.471 246.595 818.061 248.013C805.102 253.43 792.266 259.935 780.08 266.912C769.99 272.689 759.426 280.439 748.349 284.057C737.864 287.481 723.907 287.455 712.863 288.76Q684.72 292.117 656.778 296.864C752.748 210.773 852.102 170.774 980.937 165.438Z"/>
</svg>
